<svg width="48" height="54" viewBox="0 0 48 54" fill="none" xmlns="http://www.w3.org/2000/svg">
<g filter="url(#filter0_f_121_1729)">
<path d="M25.19 5.2644L42.2286 15.1016C42.965 15.5268 43.4186 16.3125 43.4186 17.1628V36.8372C43.4186 37.6875 42.965 38.4732 42.2286 38.8984L25.19 48.7356C24.4536 49.1607 23.5464 49.1607 22.81 48.7356L5.77141 38.8984C5.03504 38.4732 4.58142 37.6875 4.58142 36.8372V17.1628C4.58142 16.3125 5.03504 15.5268 5.77141 15.1016L22.81 5.2644C23.5464 4.83925 24.4536 4.83925 25.19 5.2644Z" stroke="#ACE78C"/>
</g>
<path d="M6.94488 13.3271C5.07537 14.2401 3.88965 16.1387 3.88965 18.2193V34.7932C3.88965 36.7934 4.98646 38.6326 6.74632 39.5833L21.5576 47.5848C23.2244 48.4852 25.2393 48.4546 26.8779 47.5038L40.511 39.5932C42.1897 38.6191 43.223 36.825 43.223 34.8841V18.1608C43.223 16.1176 42.079 14.2464 40.2605 13.315L26.4354 6.23383C24.9095 5.45228 23.1047 5.43509 21.5642 6.18742L6.94488 13.3271Z" fill="url(#paint0_linear_121_1729)" stroke="url(#paint1_linear_121_1729)" stroke-width="2"/>
<path d="M29.6377 25.4149L23.4854 16.333L17.3332 25.4149H21.4347L22.6324 36.9997H24.2221L25.5362 25.4149H29.6377Z" fill="url(#paint2_linear_121_1729)"/>
<defs>
<filter id="filter0_f_121_1729" x="0.081543" y="0.445557" width="47.8369" height="53.1089" filterUnits="userSpaceOnUse" color-interpolation-filters="sRGB">
<feFlood flood-opacity="0" result="BackgroundImageFix"/>
<feBlend mode="normal" in="SourceGraphic" in2="BackgroundImageFix" result="shape"/>
<feGaussianBlur stdDeviation="2" result="effect1_foregroundBlur_121_1729"/>
</filter>
<linearGradient id="paint0_linear_121_1729" x1="23.5563" y1="6.11035" x2="24.0008" y2="42.9992" gradientUnits="userSpaceOnUse">
<stop stop-color="#AEF894"/>
<stop offset="0.513885" stop-color="#ADD986"/>
<stop offset="1" stop-color="#AEC17D"/>
</linearGradient>
<linearGradient id="paint1_linear_121_1729" x1="23.5563" y1="6.11035" x2="24.0008" y2="42.9992" gradientUnits="userSpaceOnUse">
<stop stop-color="#AEC17D"/>
<stop offset="0.486115" stop-color="#ADD986"/>
<stop offset="1" stop-color="#AEF894"/>
</linearGradient>
<linearGradient id="paint2_linear_121_1729" x1="23.4854" y1="16.333" x2="23.4854" y2="74.9259" gradientUnits="userSpaceOnUse">
<stop stop-color="#90BD70"/>
<stop offset="0.601851" stop-opacity="0"/>
</linearGradient>
</defs>
</svg>
