<svg width="30" height="30" viewBox="0 0 30 30" fill="none" xmlns="http://www.w3.org/2000/svg">
<path d="M10.125 8.90625V13.7812L2.8125 7.6875L10.125 1.59375V6.46875H16.2188C18.8046 6.46875 21.2846 7.49598 23.113 9.32446C24.9415 11.1529 25.9688 13.6329 25.9688 16.2188C25.9688 18.8046 24.9415 21.2846 23.113 23.113C21.2846 24.9415 18.8046 25.9688 16.2188 25.9688H5.25V23.5312H16.2188C18.1581 23.5312 20.0181 22.7608 21.3895 21.3895C22.7608 20.0181 23.5312 18.1581 23.5312 16.2188C23.5312 14.2794 22.7608 12.4194 21.3895 11.048C20.0181 9.67667 18.1581 8.90625 16.2188 8.90625H10.125Z" fill="white"/>
</svg>
