<svg width="48" height="54" viewBox="0 0 48 54" fill="none" xmlns="http://www.w3.org/2000/svg">
<g filter="url(#filter0_f_122_446)">
<path d="M25.19 5.2644L42.2286 15.1016C42.965 15.5268 43.4186 16.3125 43.4186 17.1628V36.8372C43.4186 37.6875 42.965 38.4732 42.2286 38.8984L25.19 48.7356C24.4536 49.1607 23.5464 49.1607 22.81 48.7356L5.77141 38.8984C5.03504 38.4732 4.58142 37.6875 4.58142 36.8372V17.1628C4.58142 16.3125 5.03504 15.5268 5.77141 15.1016L22.81 5.2644C23.5464 4.83925 24.4536 4.83925 25.19 5.2644Z" stroke="#FFC956"/>
</g>
<path d="M43.221 34.8841V18.1608C43.221 16.1176 42.0771 14.2464 40.2586 13.315L26.4335 6.23383C24.9076 5.45228 23.1027 5.43509 21.5622 6.18742L6.94293 13.3271C5.07342 14.2401 3.8877 16.1387 3.8877 18.2193V34.7932C3.8877 36.7934 4.98451 38.6326 6.74436 39.5833L21.5557 47.5848C23.2224 48.4852 25.2374 48.4546 26.8759 47.5038L40.509 39.5932C42.1878 38.6191 43.221 36.825 43.221 34.8841Z" fill="url(#paint0_linear_122_446)" stroke="url(#paint1_linear_122_446)" stroke-width="2"/>
<path d="M33.7385 22.5353L33.763 22.7464L33.7707 22.962V31.0375C33.7706 31.4915 33.6593 31.9385 33.4464 32.3395C33.2335 32.7404 32.9256 33.0831 32.5496 33.3375L32.383 33.4431L25.3885 37.4809L25.2507 37.5553L25.1107 37.622V27.6331L33.7385 22.5353ZM14.2607 22.5353L22.8885 27.6342V37.6209C22.7934 37.5794 22.7007 37.5327 22.6107 37.4809L15.6174 33.4431C15.1951 33.1993 14.8445 32.8486 14.6007 32.4264C14.3569 32.0041 14.2285 31.5251 14.2285 31.0375V22.962C14.2285 22.8175 14.2396 22.6753 14.2618 22.5353H14.2607ZM25.3885 16.5186L32.3818 20.5564C32.4374 20.5897 32.493 20.6231 32.5463 20.6586L23.9996 25.7086L15.453 20.6586C15.5065 20.6226 15.5614 20.5885 15.6174 20.5564L22.6107 16.5186C23.033 16.2748 23.512 16.1465 23.9996 16.1465C24.4872 16.1465 24.9662 16.2748 25.3885 16.5186Z" fill="#CA7B38"/>
<defs>
<filter id="filter0_f_122_446" x="0.081543" y="0.445557" width="47.8369" height="53.1089" filterUnits="userSpaceOnUse" color-interpolation-filters="sRGB">
<feFlood flood-opacity="0" result="BackgroundImageFix"/>
<feBlend mode="normal" in="SourceGraphic" in2="BackgroundImageFix" result="shape"/>
<feGaussianBlur stdDeviation="2" result="effect1_foregroundBlur_122_446"/>
</filter>
<linearGradient id="paint0_linear_122_446" x1="23.5544" y1="6.11035" x2="23.9988" y2="42.9992" gradientUnits="userSpaceOnUse">
<stop stop-color="#FFD45B"/>
<stop offset="0.513885" stop-color="#FFB751"/>
<stop offset="1" stop-color="#FF9948"/>
</linearGradient>
<linearGradient id="paint1_linear_122_446" x1="23.5544" y1="6.11035" x2="23.9988" y2="42.9992" gradientUnits="userSpaceOnUse">
<stop stop-color="#FF9948"/>
<stop offset="0.486115" stop-color="#FFB751"/>
<stop offset="1" stop-color="#FFD45B"/>
</linearGradient>
</defs>
</svg>
