<svg width="48" height="54" viewBox="0 0 48 54" fill="none" xmlns="http://www.w3.org/2000/svg">
<g filter="url(#filter0_f_122_442)">
<path d="M25.19 5.2644L42.2286 15.1016C42.965 15.5268 43.4186 16.3125 43.4186 17.1628V36.8372C43.4186 37.6875 42.965 38.4732 42.2286 38.8984L25.19 48.7356C24.4536 49.1607 23.5464 49.1607 22.81 48.7356L5.77142 38.8984C5.03504 38.4732 4.58142 37.6875 4.58142 36.8372V17.1628C4.58142 16.3125 5.03504 15.5268 5.77141 15.1016L22.81 5.2644C23.5464 4.83925 24.4536 4.83925 25.19 5.2644Z" stroke="#FAE555"/>
</g>
<path d="M43.9822 34.8319V18.211C43.9822 16.1357 42.8024 14.2409 40.9401 13.3252L26.3572 6.15474C24.8741 5.42549 23.1401 5.40938 21.6437 6.11094L6.22655 13.3391C4.31447 14.2355 3.09326 16.1568 3.09326 18.2686V34.7421C3.09326 36.7753 4.2262 38.6391 6.03114 39.5752L21.6504 47.6757C23.273 48.5172 25.2096 48.4883 26.8064 47.5988L41.1871 39.5882C42.9126 38.6271 43.9822 36.807 43.9822 34.8319Z" fill="url(#paint0_linear_122_442)" stroke="url(#paint1_linear_122_442)" stroke-width="2"/>
<g filter="url(#filter1_i_122_442)">
<path d="M23.5848 35.546C22.4144 35.546 21.3922 35.3398 20.5182 34.9273C19.6589 34.5149 18.8737 33.8962 18.1626 33.0713L20.1182 31.1727C20.5774 31.7558 21.0959 32.2251 21.6737 32.5807C22.2663 32.922 22.9552 33.0927 23.7404 33.0927C24.5404 33.0927 25.17 32.9362 25.6293 32.6233C26.0885 32.3104 26.3182 31.8696 26.3182 31.3007C26.3182 30.8456 26.1848 30.4758 25.9182 30.1913C25.6515 29.9069 25.2959 29.6651 24.8515 29.466C24.4219 29.2669 23.9478 29.0891 23.4293 28.9327C22.9107 28.762 22.3922 28.57 21.8737 28.3567C21.3552 28.1433 20.8737 27.8802 20.4293 27.5673C19.9996 27.2402 19.6515 26.8278 19.3848 26.33C19.133 25.818 19.007 25.178 19.007 24.41C19.007 23.4998 19.2293 22.7247 19.6737 22.0847C20.133 21.4447 20.7552 20.954 21.5404 20.6127C22.3404 20.2713 23.2441 20.1007 24.2515 20.1007C25.2293 20.1007 26.133 20.2927 26.9626 20.6767C27.7922 21.0607 28.4811 21.5584 29.0293 22.17L27.0515 24.0687C26.607 23.5851 26.1478 23.2153 25.6737 22.9593C25.2144 22.7033 24.7182 22.5753 24.1848 22.5753C23.4589 22.5753 22.8959 22.7104 22.4959 22.9807C22.0959 23.2367 21.8959 23.6349 21.8959 24.1753C21.8959 24.5878 22.0293 24.922 22.2959 25.178C22.5626 25.434 22.9107 25.6544 23.3404 25.8393C23.7848 26.0242 24.2663 26.202 24.7848 26.3727C25.3182 26.5433 25.8441 26.7353 26.3626 26.9487C26.8959 27.162 27.3774 27.4393 27.807 27.7807C28.2515 28.122 28.607 28.5629 28.8737 29.1033C29.1404 29.6296 29.2737 30.2838 29.2737 31.066C29.2737 32.4598 28.7626 33.5549 27.7404 34.3513C26.733 35.1478 25.3478 35.546 23.5848 35.546ZM23.0515 34.2233H25.1626V37.466H23.0515V34.2233ZM25.1626 21.53H23.0515V18.1807H25.1626V21.53Z" fill="#BC8417"/>
</g>
<defs>
<filter id="filter0_f_122_442" x="0.081543" y="0.445557" width="47.8369" height="53.1089" filterUnits="userSpaceOnUse" color-interpolation-filters="sRGB">
<feFlood flood-opacity="0" result="BackgroundImageFix"/>
<feBlend mode="normal" in="SourceGraphic" in2="BackgroundImageFix" result="shape"/>
<feGaussianBlur stdDeviation="2" result="effect1_foregroundBlur_122_442"/>
</filter>
<filter id="filter1_i_122_442" x="18.1626" y="18.1807" width="11.1113" height="24.6186" filterUnits="userSpaceOnUse" color-interpolation-filters="sRGB">
<feFlood flood-opacity="0" result="BackgroundImageFix"/>
<feBlend mode="normal" in="SourceGraphic" in2="BackgroundImageFix" result="shape"/>
<feColorMatrix in="SourceAlpha" type="matrix" values="0 0 0 0 0 0 0 0 0 0 0 0 0 0 0 0 0 0 127 0" result="hardAlpha"/>
<feOffset dy="5.33333"/>
<feGaussianBlur stdDeviation="8"/>
<feComposite in2="hardAlpha" operator="arithmetic" k2="-1" k3="1"/>
<feColorMatrix type="matrix" values="0 0 0 0 0 0 0 0 0 0 0 0 0 0 0 0 0 0 0.08 0"/>
<feBlend mode="normal" in2="shape" result="effect1_innerShadow_122_442"/>
</filter>
<linearGradient id="paint0_linear_122_442" x1="23.5377" y1="6.11035" x2="23.9644" y2="42.9997" gradientUnits="userSpaceOnUse">
<stop stop-color="#FAE756"/>
<stop offset="0.513885" stop-color="#F0C74B"/>
<stop offset="1" stop-color="#EAAC44"/>
</linearGradient>
<linearGradient id="paint1_linear_122_442" x1="23.5377" y1="6.11035" x2="23.9644" y2="42.9997" gradientUnits="userSpaceOnUse">
<stop stop-color="#EAAC44"/>
<stop offset="0.486115" stop-color="#F0C74B"/>
<stop offset="1" stop-color="#FAE756"/>
</linearGradient>
</defs>
</svg>
