<svg width="30" height="30" viewBox="0 0 30 30" fill="none" xmlns="http://www.w3.org/2000/svg">
<path d="M18.1223 11.4809L12.5941 12.1737L12.3966 13.0914L13.4844 13.2889C14.1919 13.4589 14.3326 13.713 14.1791 14.4205L12.3966 22.7878C11.9305 24.9505 12.6526 25.9688 14.3473 25.9688C15.6635 25.9688 17.1882 25.3618 17.881 24.5264L18.0931 23.5227C17.6123 23.9468 16.9048 24.1169 16.4386 24.1169C15.775 24.1169 15.5355 23.6507 15.7037 22.8299L18.1223 11.4809ZM18.2887 6.44437C18.2887 7.08438 18.0345 7.69816 17.5819 8.15071C17.1294 8.60326 16.5156 8.8575 15.8756 8.8575C15.2356 8.8575 14.6218 8.60326 14.1692 8.15071C13.7167 7.69816 13.4624 7.08438 13.4624 6.44437C13.4624 5.80437 13.7167 5.19059 14.1692 4.73804C14.6218 4.28549 15.2356 4.03125 15.8756 4.03125C16.5156 4.03125 17.1294 4.28549 17.5819 4.73804C18.0345 5.19059 18.2887 5.80437 18.2887 6.44437Z" fill="white"/>
</svg>
