<svg width="30" height="30" viewBox="0 0 30 30" fill="none" xmlns="http://www.w3.org/2000/svg">
<path d="M11.6483 27.1875L11.1608 23.2875C10.8967 23.1859 10.6477 23.0641 10.4137 22.9219C10.1797 22.7797 9.95137 22.6273 9.72875 22.4648L6.10297 23.9883L2.7514 18.1992L5.88969 15.8227C5.86937 15.6805 5.85922 15.5432 5.85922 15.4107V14.5893C5.85922 14.4568 5.86937 14.3195 5.88969 14.1773L2.7514 11.8008L6.10297 6.01172L9.72875 7.53516C9.95219 7.37266 10.1858 7.22031 10.4295 7.07812C10.6733 6.93594 10.917 6.81406 11.1608 6.7125L11.6483 2.8125H18.3514L18.8389 6.7125C19.103 6.81406 19.352 6.93594 19.586 7.07812C19.82 7.22031 20.0483 7.37266 20.2709 7.53516L23.8967 6.01172L27.2483 11.8008L24.11 14.1773C24.1303 14.3195 24.1405 14.4568 24.1405 14.5893V15.4107C24.1405 15.5432 24.1202 15.6805 24.0795 15.8227L27.2178 18.1992L23.8662 23.9883L20.2709 22.4648C20.0475 22.6273 19.8139 22.7797 19.5702 22.9219C19.3264 23.0641 19.0827 23.1859 18.8389 23.2875L18.3514 27.1875H11.6483ZM15.0608 19.2656C16.2389 19.2656 17.2444 18.8492 18.0772 18.0164C18.91 17.1836 19.3264 16.1781 19.3264 15C19.3264 13.8219 18.91 12.8164 18.0772 11.9836C17.2444 11.1508 16.2389 10.7344 15.0608 10.7344C13.8623 10.7344 12.8516 11.1508 12.0285 11.9836C11.2055 12.8164 10.7943 13.8219 10.7952 15C10.7952 16.1781 11.2063 17.1836 12.0285 18.0164C12.8508 18.8492 13.8615 19.2656 15.0608 19.2656Z" fill="white"/>
</svg>
