<svg width="30" height="35" viewBox="0 0 30 35" fill="none" xmlns="http://www.w3.org/2000/svg">
<g clip-path="url(#clip0_764_20805)">
<path d="M11.1081 30L14.7949 26.3119V27.9107V28.1138L14.998 28.1138C17.1057 28.1141 19.1661 27.489 20.9184 26.3177C22.6707 25.1464 24.036 23.4816 24.8416 21.5339C25.6472 19.5863 25.8569 17.4434 25.444 15.3765C25.0444 13.376 24.079 11.5338 22.6645 10.0677L25.323 7.39656C26.6022 8.70431 27.6205 10.2447 28.3225 11.9354C29.0504 13.6885 29.4239 15.5685 29.4213 17.4668V17.4671C29.4213 25.4307 22.9658 31.8862 15.0022 31.8862H14.9994H14.7963V32.0893V33.6882L11.1081 30ZM7.33024 24.8623L4.67394 27.5337C3.39561 26.2338 2.37761 24.7006 1.67558 23.0167C0.953316 21.2842 0.579775 19.4265 0.57616 17.5498L0.577436 17.5485L0.577537 17.4645C0.587152 9.50357 7.03855 3.05213 14.9981 3.04241C14.9981 3.04241 14.9982 3.04241 14.9983 3.04241L14.9994 3.04241H15.2025V2.83929V1.24039L18.8907 4.92857L15.2025 8.61675V7.01786V6.81473H14.9994H14.9966C12.8889 6.81485 10.8286 7.44022 9.07651 8.6117C7.32438 9.78318 5.95915 11.4481 5.15359 13.3958C4.34804 15.3435 4.13838 17.4863 4.55115 19.5532C4.95067 21.5537 5.91592 23.3961 7.33024 24.8623Z" fill="white" stroke="#585F7D" stroke-width="0.40625"/>
<path d="M10.437 21.875L14.181 12.775H15.221L18.939 21.875H17.327L14.415 14.504H14.961L12.023 21.875H10.437ZM12.283 20.12V18.82H17.106V20.12H12.283Z" fill="white"/>
</g>
<defs>
<clipPath id="clip0_764_20805">
<rect width="29.25" height="33.4286" fill="white" transform="translate(0.375 0.75)"/>
</clipPath>
</defs>
</svg>
