<svg width="62" height="70" viewBox="0 0 62 70" fill="none" xmlns="http://www.w3.org/2000/svg">
<path d="M22.3645 60.8542L30.9966 52.2362V56.5452C35.269 56.5458 39.4456 55.2812 42.9976 52.9115C46.5496 50.5418 49.3172 47.1736 50.9503 43.2333C52.5833 39.293 53.0083 34.9577 52.1713 30.7762C51.3344 26.5947 49.2732 22.755 46.2487 19.7432L52.3335 13.6416C55.1551 16.4405 57.3934 19.7694 58.9189 23.4363C60.4445 27.1032 61.2271 31.0354 61.2217 35.0058C61.2217 51.6616 47.6936 65.1632 31.0052 65.1632H30.9995V69.4723L22.3645 60.8542ZM0.777234 35.0001C0.797383 18.35 14.3168 4.85697 30.9966 4.83686H30.9995V0.527832L39.6344 9.14589L30.9995 17.7639V13.4549H30.9937C26.7213 13.4552 22.5449 14.7204 18.9932 17.0904C15.4415 19.4604 12.6741 22.8288 11.0412 26.7691C9.40828 30.7095 8.98328 35.0448 9.81998 39.2263C10.6567 43.4078 12.7175 47.2476 15.7416 50.2598L9.66257 56.3613C6.84247 53.5792 4.60447 50.2655 3.07863 46.6127C1.55279 42.9599 0.769527 39.0409 0.774356 35.0834V34.9972V35.0029L0.777234 35.0001Z" fill="white"/>
</svg>
